<?xml version="1.0" encoding="UTF-8" standalone="no"?>
<svg width="19px" height="25px" viewBox="0 0 19 25" version="1.1" xmlns="http://www.w3.org/2000/svg" xmlns:xlink="http://www.w3.org/1999/xlink">
    <!-- Generator: Sketch 48.2 (47327) - http://www.bohemiancoding.com/sketch -->
    <title>bag icon</title>
    <desc>Created with Sketch.</desc>
    <defs></defs>
    <g id="scroled-home-page" stroke="none" stroke-width="1" fill="none" fill-rule="evenodd" transform="translate(-1582.000000, -21.000000)">
        <g id="Nav" transform="translate(-10.000000, -2.000000)" fill="#757474">
            <path d="M1609,46 L1594,46 L1594,31 L1597.00381,31 L1597.00381,33.4658586 C1597.00381,33.7605015 1597.21732,34.0015729 1597.51303,34.0015729 C1597.80875,34.0015729 1598.00256,33.7605015 1598.00256,33.4658586 L1598.00256,31 L1604.99863,31 L1604.99863,33.4658586 C1604.99863,33.7605015 1605.20429,34.0015729 1605.5,34.0015729 C1605.79571,34.0015729 1606.00148,33.7605015 1606.00148,33.4658586 L1606.00148,31 L1609,31 L1609,46 Z M1598.00175,27.0114556 C1598.00175,25.2885114 1599.77669,23.9910657 1601.52258,23.9910657 C1603.26847,23.9910657 1604.99693,25.2885114 1604.99693,27.0114556 L1604.99693,29.000028 L1598.00175,29.000028 L1598.00175,27.0114556 Z M1606.00099,29.000489 L1606.00099,27.0161342 C1606.00099,24.7150557 1603.83172,23 1601.5,23 C1599.16828,23 1597.00826,24.7150557 1597.00826,27.0161342 L1597.00826,29.000489 L1592,29.000489 L1592,48.0004 L1611,48.0004 L1611,29.000489 L1606.00099,29.000489 Z" id="bag-icon"></path>
        </g>
    </g>
</svg>